# xmcd
#
# Track frame offsets: 
#        182
#        26262
#        44855
#        66540
#        88042
#
# Disc length: 1430 seconds
#
# Revision: 0
# Processed by: cddbd v1.4PL0 Copyright (c) Steve Scherf et al.
# Submitted via: ExactAudioCopy v0.95a3
#
DISCID=43059405
DTITLE=Usher - Comin' For X-Mas?
DYEAR=1995
DGENRE=R&B
TTITLE0=Comin' For X-Mas? (Santa's Main Mix)
TTITLE1=Comin' For X-Mas? (Santa's Radio Edit)
TTITLE2=Comin' For X-Mas? (Santa-mental)
TTITLE3=Comin' For X-Mas? (Santapella)
TTITLE4=Comin' For X-Mas? (Elfapella)
EXTD=
EXTT0=
EXTT1=
EXTT2=
EXTT3=
EXTT4=
PLAYORDER=
